<svg width="104" height="23" viewBox="0 0 104 23" fill="none" xmlns="http://www.w3.org/2000/svg">
  <path
    d="M80.7565 7.27753H81.942C83.6791 7.27753 85.0874 8.68574 85.0874 10.4229V22.7381H80.7565V7.27753Z"
    fill="currentColor" />
  <path
    d="M4.26798 16.6997C4.29056 17.5126 4.59542 18.2014 5.18254 18.7659C5.79226 19.3304 6.80844 19.6127 8.2311 19.6127C9.54085 19.6127 10.478 19.4208 11.0425 19.0369C11.6297 18.653 11.9232 18.1336 11.9232 17.4787C11.9232 17.0497 11.7313 16.7222 11.3474 16.4964C10.9861 16.2706 10.478 16.1012 9.82312 15.9883C9.16825 15.8528 8.14077 15.7061 6.74069 15.548C4.30185 15.2544 2.65337 14.5995 1.79526 13.5834C0.959731 12.5446 0.541965 11.359 0.541965 10.0267C0.541965 9.0331 0.83553 8.12983 1.42266 7.31688C2.00979 6.48135 2.87919 5.81518 4.03087 5.31838C5.18254 4.82158 6.57133 4.57318 8.19723 4.57318C10.478 4.57318 12.2733 5.11515 13.583 6.19908C14.8928 7.26043 15.6041 8.63792 15.717 10.3316H11.449C11.3813 9.65411 11.0877 9.08956 10.5683 8.63792C10.0715 8.18628 9.24728 7.96046 8.09561 7.96046C5.95033 7.96046 4.87769 8.57018 4.87769 9.7896C4.87769 10.1283 4.95673 10.4106 5.1148 10.6364C5.29545 10.8622 5.66806 11.0655 6.2326 11.2461C6.79715 11.4268 7.63268 11.5736 8.73919 11.6865C11.1103 11.9349 12.9507 12.4881 14.2605 13.3462C15.5928 14.1818 16.259 15.4464 16.259 17.14C16.259 19.0143 15.5476 20.4595 14.125 21.4757C12.7249 22.4919 10.7151 23 8.09561 23C5.56644 23 3.60181 22.4467 2.20173 21.3402C0.824239 20.2111 0.0903276 18.6643 0 16.6997H4.26798Z"
    fill="currentColor" />
  <path
    d="M25.4832 4.57318C27.2898 4.57318 28.8705 4.97966 30.2254 5.7926C31.5803 6.60555 32.6191 7.71206 33.3417 9.11214C34.0643 10.5122 34.4257 12.0704 34.4257 13.7866C34.4257 15.5028 34.0643 17.061 33.3417 18.461C32.6191 19.8611 31.5803 20.9676 30.2254 21.7806C28.8705 22.5935 27.2898 23 25.4832 23C23.6767 23 22.0959 22.5935 20.741 21.7806C19.3861 20.9676 18.3473 19.8611 17.6247 18.461C16.9021 17.061 16.5408 15.5028 16.5408 13.7866C16.5408 12.0704 16.9021 10.5122 17.6247 9.11214C18.3473 7.71206 19.3861 6.60555 20.741 5.7926C22.0959 4.97966 23.6767 4.57318 25.4832 4.57318ZM25.4832 19.0708C26.9059 19.0708 28.0237 18.574 28.8366 17.5804C29.6722 16.5642 30.0899 15.2996 30.0899 13.7866C30.0899 12.2736 29.6722 11.0203 28.8366 10.0267C28.0237 9.01052 26.9059 8.50243 25.4832 8.50243C24.0606 8.50243 22.9315 9.01052 22.0959 10.0267C21.283 11.0203 20.8765 12.2736 20.8765 13.7866C20.8765 15.2996 21.283 16.5642 22.0959 17.5804C22.9315 18.574 24.0606 19.0708 25.4832 19.0708Z"
    fill="currentColor" />
  <path
    d="M54.8356 4.57318C56.5744 4.57318 57.9858 5.12644 59.0697 6.23295C60.1762 7.33946 60.7295 9.13472 60.7295 11.6187V22.729H56.3938V12.2962C56.3938 10.9413 56.168 9.97025 55.7163 9.38312C55.2873 8.79599 54.5534 8.50243 53.5146 8.50243C52.5436 8.50243 51.7419 8.98794 51.1096 9.95896C50.4773 10.9074 50.1612 12.1607 50.1612 13.7188V22.729H45.8255V12.7027C45.8255 11.2123 45.6561 10.1396 45.3174 9.48474C44.9786 8.82987 44.2899 8.50243 43.2511 8.50243C42.5511 8.50243 41.9188 8.76212 41.3542 9.28151C40.8123 9.77831 40.3832 10.4896 40.0671 11.4155C39.7509 12.3188 39.5928 13.335 39.5928 14.464V22.729H35.2571V4.84416H39.5928V5.86035C39.5928 6.26682 39.5477 6.60555 39.4574 6.87653C39.367 7.14752 39.2202 7.52012 39.017 7.99434C38.9267 8.17499 38.8815 8.32177 38.8815 8.43468C38.8815 8.57018 38.9606 8.67179 39.1186 8.73954L39.2541 8.77341C39.3896 8.77341 39.4912 8.71696 39.559 8.60405C39.6267 8.46856 39.6606 8.38952 39.6606 8.36694C40.1348 7.1701 40.7897 6.24424 41.6252 5.58937C42.4608 4.91191 43.4543 4.57318 44.606 4.57318C45.7351 4.57318 46.6723 4.90062 47.4175 5.55549C48.1627 6.18779 48.6595 7.03461 48.9079 8.09596C48.9756 8.32177 49.145 8.43468 49.416 8.43468C49.6418 8.43468 49.7999 8.33307 49.8902 8.12983C50.387 7.00073 51.0645 6.13133 51.9226 5.52162C52.8033 4.88933 53.7743 4.57318 54.8356 4.57318Z"
    fill="currentColor" />
  <path
    d="M72.7152 4.57318C74.7024 4.57318 76.2718 5.21677 77.4235 6.50393C78.5752 7.7911 79.151 9.67669 79.151 12.1607V22.729H74.8153V13.6511C74.8153 11.7091 74.5556 10.3654 74.0362 9.62023C73.5168 8.87503 72.67 8.50243 71.4958 8.50243C70.6602 8.50243 69.8699 8.79599 69.1247 9.38312C68.4021 9.97025 67.8149 10.7945 67.3633 11.8558C66.9116 12.9172 66.6858 14.114 66.6858 15.4464V22.729H62.3501V4.84416H66.6858V5.96197C66.6858 6.48135 66.6407 6.9217 66.5503 7.28301C66.46 7.64432 66.3245 8.01692 66.1439 8.40081C66.031 8.67179 65.9745 8.85245 65.9745 8.94278C65.9745 9.14601 66.0648 9.25892 66.2455 9.28151H66.3471C66.5052 9.28151 66.6407 9.14601 66.7536 8.87503C67.2504 7.76852 68.0182 6.77491 69.0569 5.89422C70.0957 5.01353 71.3151 4.57318 72.7152 4.57318Z"
    fill="currentColor" />
  <path
    d="M86.2103 17.8175C86.2103 15.9657 86.7975 14.5995 87.9717 13.7188C89.1686 12.8156 90.7493 12.3075 92.7139 12.1946L94.4414 12.1268C95.977 12.0817 97.0722 11.98 97.7271 11.822C98.382 11.6639 98.6981 11.28 98.6756 10.6703C98.653 9.90251 98.3933 9.28151 97.8965 8.80729C97.3997 8.33307 96.4625 8.09596 95.085 8.09596C93.685 8.09596 92.6913 8.34436 92.1042 8.84116C91.5171 9.31538 91.1558 9.97025 91.0203 10.8058H86.7523C87.0459 8.68308 87.983 7.11364 89.5638 6.09746C91.1445 5.08127 93.0301 4.57318 95.2205 4.57318C97.6142 4.57318 99.5111 5.16031 100.911 6.33457C102.311 7.50883 103.011 9.67669 103.011 12.8382V22.729H98.6756V21.4757C98.6756 20.7983 98.8449 20.1434 99.1836 19.5111C99.274 19.2853 99.3191 19.1159 99.3191 19.003C99.3191 18.8675 99.2627 18.7772 99.1498 18.732L99.0143 18.6982C98.8788 18.6982 98.7772 18.7659 98.7094 18.9014C98.6417 19.0143 98.6078 19.082 98.6078 19.1046C97.5465 21.7015 95.4915 23 92.4429 23C91.3364 23 90.2977 22.7742 89.3266 22.3225C88.3782 21.8709 87.6217 21.2499 87.0572 20.4595C86.4926 19.6692 86.2103 18.7885 86.2103 17.8175ZM98.6756 13.5156C98.2239 14.0124 97.6255 14.3624 96.8803 14.5657C96.1577 14.7463 95.0173 14.9157 93.4591 15.0738C92.4881 15.1867 91.7542 15.4464 91.2574 15.8528C90.7832 16.2367 90.5461 16.8126 90.5461 17.5804C90.5461 18.2352 90.7945 18.7659 91.2913 19.1724C91.8106 19.5788 92.4768 19.7821 93.2898 19.7821C93.5833 19.7821 93.8092 19.7708 93.9672 19.7482C95.2996 19.5676 96.4061 18.9917 97.2868 18.0207C98.19 17.0497 98.653 15.548 98.6756 13.5156Z"
    fill="currentColor" />
  <path
    d="M85.3429 2.80037C85.137 2.88149 84.9127 2.92605 84.678 2.92605C83.6758 2.92605 82.8634 2.11362 82.8634 1.11143C82.8634 0.898605 82.9 0.694335 82.9673 0.504587C82.953 0.504337 82.9387 0.504211 82.9243 0.504211C81.5867 0.504211 80.5024 1.5885 80.5024 2.92605C80.5024 4.26359 81.5867 5.34789 82.9243 5.34789C84.2618 5.34789 85.3461 4.26359 85.3461 2.92605C85.3461 2.88389 85.345 2.84199 85.3429 2.80037Z"
    fill="currentColor" />
</svg>